<svg xmlns="http://www.w3.org/2000/svg" xmlns:xlink="http://www.w3.org/1999/xlink" width="500" zoomAndPan="magnify" viewBox="0 0 375 374.999991" height="500" preserveAspectRatio="xMidYMid meet" version="1.0"><defs><g/><clipPath id="id1"><path d="M 34.128906 151.203125 L 98.628906 151.203125 L 98.628906 223.953125 L 34.128906 223.953125 Z M 34.128906 151.203125 " clip-rule="nonzero"/></clipPath><clipPath id="id2"><path d="M 34.140625 223.953125 C 51.253906 222.78125 51.535156 210.121094 53.710938 196.65625 C 51.523438 197.914062 49.671875 199.691406 48.328125 201.835938 C 47.582031 197.214844 49.089844 192.414062 52.847656 187.433594 C 49.351562 187.96875 46.511719 187.058594 44.328125 184.707031 C 52.335938 183.824219 58.265625 180.941406 62.117188 176.054688 C 58.503906 175.277344 56.535156 173.011719 56.207031 169.261719 C 58.207031 171.015625 60.5625 171.902344 63.277344 171.933594 C 61.519531 171.238281 60.535156 170.132812 60.320312 168.621094 C 61.710938 169.441406 62.695312 169.789062 63.277344 169.667969 C 73.898438 169.144531 78.957031 168.542969 81.410156 173.09375 C 85.167969 172.90625 88.613281 173.652344 91.753906 175.328125 C 54.996094 180.011719 69.527344 215.402344 90.859375 192.921875 C 95.0625 188.496094 97.898438 182.761719 98.5 176.519531 C 99.84375 162.597656 89.574219 151.207031 75.683594 151.207031 L 45.894531 151.207031 L 34.140625 223.957031 Z M 34.140625 223.953125 " clip-rule="evenodd"/></clipPath><linearGradient x1="753.55035" gradientTransform="matrix(0.0686101, 0, 0, 0.0687527, 34.141094, 151.204786)" y1="-99.346014" x2="106.324835" gradientUnits="userSpaceOnUse" y2="1114.817628" id="id3"><stop stop-opacity="1" stop-color="rgb(96.099854%, 52.49939%, 20.399475%)" offset="0"/><stop stop-opacity="1" stop-color="rgb(96.090698%, 52.407837%, 20.402527%)" offset="0.125"/><stop stop-opacity="1" stop-color="rgb(96.066284%, 52.165222%, 20.410156%)" offset="0.132812"/><stop stop-opacity="1" stop-color="rgb(96.037292%, 51.864624%, 20.422363%)" offset="0.140625"/><stop stop-opacity="1" stop-color="rgb(96.008301%, 51.564026%, 20.433044%)" offset="0.148437"/><stop stop-opacity="1" stop-color="rgb(95.977783%, 51.263428%, 20.443726%)" offset="0.15625"/><stop stop-opacity="1" stop-color="rgb(95.948792%, 50.96283%, 20.454407%)" offset="0.164062"/><stop stop-opacity="1" stop-color="rgb(95.9198%, 50.662231%, 20.465088%)" offset="0.171875"/><stop stop-opacity="1" stop-color="rgb(95.890808%, 50.361633%, 20.477295%)" offset="0.179687"/><stop stop-opacity="1" stop-color="rgb(95.861816%, 50.061035%, 20.487976%)" offset="0.1875"/><stop stop-opacity="1" stop-color="rgb(95.832825%, 49.758911%, 20.498657%)" offset="0.195312"/><stop stop-opacity="1" stop-color="rgb(95.802307%, 49.458313%, 20.509338%)" offset="0.203125"/><stop stop-opacity="1" stop-color="rgb(95.773315%, 49.157715%, 20.52002%)" offset="0.210937"/><stop stop-opacity="1" stop-color="rgb(95.744324%, 48.857117%, 20.530701%)" offset="0.21875"/><stop stop-opacity="1" stop-color="rgb(95.715332%, 48.556519%, 20.542908%)" offset="0.226562"/><stop stop-opacity="1" stop-color="rgb(95.68634%, 48.25592%, 20.553589%)" offset="0.234375"/><stop stop-opacity="1" stop-color="rgb(95.657349%, 47.955322%, 20.56427%)" offset="0.242188"/><stop stop-opacity="1" stop-color="rgb(95.626831%, 47.654724%, 20.574951%)" offset="0.25"/><stop stop-opacity="1" stop-color="rgb(95.597839%, 47.354126%, 20.585632%)" offset="0.257812"/><stop stop-opacity="1" stop-color="rgb(95.568848%, 47.053528%, 20.597839%)" offset="0.265625"/><stop stop-opacity="1" stop-color="rgb(95.539856%, 46.75293%, 20.608521%)" offset="0.273438"/><stop stop-opacity="1" stop-color="rgb(95.510864%, 46.450806%, 20.619202%)" offset="0.28125"/><stop stop-opacity="1" stop-color="rgb(95.481873%, 46.150208%, 20.629883%)" offset="0.289062"/><stop stop-opacity="1" stop-color="rgb(95.451355%, 45.849609%, 20.640564%)" offset="0.296875"/><stop stop-opacity="1" stop-color="rgb(95.422363%, 45.549011%, 20.652771%)" offset="0.304687"/><stop stop-opacity="1" stop-color="rgb(95.393372%, 45.248413%, 20.663452%)" offset="0.3125"/><stop stop-opacity="1" stop-color="rgb(95.36438%, 44.947815%, 20.674133%)" offset="0.320312"/><stop stop-opacity="1" stop-color="rgb(95.335388%, 44.647217%, 20.684814%)" offset="0.321353"/><stop stop-opacity="1" stop-color="rgb(95.321655%, 44.497681%, 20.690918%)" offset="0.328125"/><stop stop-opacity="1" stop-color="rgb(95.306396%, 44.346619%, 20.695496%)" offset="0.335938"/><stop stop-opacity="1" stop-color="rgb(95.275879%, 44.046021%, 20.706177%)" offset="0.34375"/><stop stop-opacity="1" stop-color="rgb(95.246887%, 43.745422%, 20.718384%)" offset="0.351562"/><stop stop-opacity="1" stop-color="rgb(95.217896%, 43.444824%, 20.729065%)" offset="0.359375"/><stop stop-opacity="1" stop-color="rgb(95.188904%, 43.1427%, 20.739746%)" offset="0.367187"/><stop stop-opacity="1" stop-color="rgb(95.159912%, 42.842102%, 20.750427%)" offset="0.375"/><stop stop-opacity="1" stop-color="rgb(95.13092%, 42.541504%, 20.761108%)" offset="0.382813"/><stop stop-opacity="1" stop-color="rgb(95.100403%, 42.240906%, 20.773315%)" offset="0.390625"/><stop stop-opacity="1" stop-color="rgb(95.071411%, 41.940308%, 20.783997%)" offset="0.398438"/><stop stop-opacity="1" stop-color="rgb(95.042419%, 41.639709%, 20.794678%)" offset="0.40625"/><stop stop-opacity="1" stop-color="rgb(95.013428%, 41.339111%, 20.805359%)" offset="0.414062"/><stop stop-opacity="1" stop-color="rgb(94.984436%, 41.038513%, 20.81604%)" offset="0.421875"/><stop stop-opacity="1" stop-color="rgb(94.953918%, 40.737915%, 20.828247%)" offset="0.429688"/><stop stop-opacity="1" stop-color="rgb(94.924927%, 40.437317%, 20.838928%)" offset="0.4375"/><stop stop-opacity="1" stop-color="rgb(94.895935%, 40.136719%, 20.849609%)" offset="0.445312"/><stop stop-opacity="1" stop-color="rgb(94.866943%, 39.834595%, 20.860291%)" offset="0.453125"/><stop stop-opacity="1" stop-color="rgb(94.837952%, 39.533997%, 20.870972%)" offset="0.460937"/><stop stop-opacity="1" stop-color="rgb(94.80896%, 39.233398%, 20.883179%)" offset="0.46875"/><stop stop-opacity="1" stop-color="rgb(94.778442%, 38.9328%, 20.89386%)" offset="0.476562"/><stop stop-opacity="1" stop-color="rgb(94.749451%, 38.632202%, 20.904541%)" offset="0.484375"/><stop stop-opacity="1" stop-color="rgb(94.720459%, 38.331604%, 20.915222%)" offset="0.492188"/><stop stop-opacity="1" stop-color="rgb(94.691467%, 38.031006%, 20.925903%)" offset="0.5"/><stop stop-opacity="1" stop-color="rgb(94.662476%, 37.730408%, 20.936584%)" offset="0.507812"/><stop stop-opacity="1" stop-color="rgb(94.633484%, 37.42981%, 20.948792%)" offset="0.515625"/><stop stop-opacity="1" stop-color="rgb(94.602966%, 37.129211%, 20.959473%)" offset="0.523438"/><stop stop-opacity="1" stop-color="rgb(94.573975%, 36.828613%, 20.970154%)" offset="0.53125"/><stop stop-opacity="1" stop-color="rgb(94.544983%, 36.526489%, 20.980835%)" offset="0.539062"/><stop stop-opacity="1" stop-color="rgb(94.515991%, 36.225891%, 20.991516%)" offset="0.546875"/><stop stop-opacity="1" stop-color="rgb(94.487%, 35.925293%, 21.003723%)" offset="0.554688"/><stop stop-opacity="1" stop-color="rgb(94.458008%, 35.624695%, 21.014404%)" offset="0.5625"/><stop stop-opacity="1" stop-color="rgb(94.42749%, 35.324097%, 21.025085%)" offset="0.570313"/><stop stop-opacity="1" stop-color="rgb(94.398499%, 35.023499%, 21.035767%)" offset="0.578125"/><stop stop-opacity="1" stop-color="rgb(94.369507%, 34.7229%, 21.046448%)" offset="0.585938"/><stop stop-opacity="1" stop-color="rgb(94.340515%, 34.422302%, 21.058655%)" offset="0.59375"/><stop stop-opacity="1" stop-color="rgb(94.311523%, 34.121704%, 21.069336%)" offset="0.601563"/><stop stop-opacity="1" stop-color="rgb(94.282532%, 33.821106%, 21.080017%)" offset="0.609375"/><stop stop-opacity="1" stop-color="rgb(94.252014%, 33.520508%, 21.090698%)" offset="0.617188"/><stop stop-opacity="1" stop-color="rgb(94.223022%, 33.21991%, 21.101379%)" offset="0.625"/><stop stop-opacity="1" stop-color="rgb(94.194031%, 32.917786%, 21.112061%)" offset="0.632812"/><stop stop-opacity="1" stop-color="rgb(94.165039%, 32.617188%, 21.124268%)" offset="0.640625"/><stop stop-opacity="1" stop-color="rgb(94.136047%, 32.316589%, 21.134949%)" offset="0.648438"/><stop stop-opacity="1" stop-color="rgb(94.107056%, 32.015991%, 21.14563%)" offset="0.65625"/><stop stop-opacity="1" stop-color="rgb(94.076538%, 31.715393%, 21.156311%)" offset="0.664062"/><stop stop-opacity="1" stop-color="rgb(94.047546%, 31.414795%, 21.166992%)" offset="0.671875"/><stop stop-opacity="1" stop-color="rgb(94.018555%, 31.114197%, 21.179199%)" offset="0.678647"/><stop stop-opacity="1" stop-color="rgb(94.004822%, 30.964661%, 21.185303%)" offset="0.679688"/><stop stop-opacity="1" stop-color="rgb(93.989563%, 30.813599%, 21.18988%)" offset="0.6875"/><stop stop-opacity="1" stop-color="rgb(93.960571%, 30.513%, 21.200562%)" offset="0.695312"/><stop stop-opacity="1" stop-color="rgb(93.93158%, 30.212402%, 21.211243%)" offset="0.703125"/><stop stop-opacity="1" stop-color="rgb(93.901062%, 29.911804%, 21.221924%)" offset="0.710938"/><stop stop-opacity="1" stop-color="rgb(93.87207%, 29.60968%, 21.234131%)" offset="0.71875"/><stop stop-opacity="1" stop-color="rgb(93.843079%, 29.309082%, 21.244812%)" offset="0.726562"/><stop stop-opacity="1" stop-color="rgb(93.814087%, 29.008484%, 21.255493%)" offset="0.734375"/><stop stop-opacity="1" stop-color="rgb(93.785095%, 28.707886%, 21.266174%)" offset="0.742187"/><stop stop-opacity="1" stop-color="rgb(93.756104%, 28.407288%, 21.276855%)" offset="0.75"/><stop stop-opacity="1" stop-color="rgb(93.725586%, 28.106689%, 21.287537%)" offset="0.757813"/><stop stop-opacity="1" stop-color="rgb(93.696594%, 27.806091%, 21.299744%)" offset="0.765625"/><stop stop-opacity="1" stop-color="rgb(93.667603%, 27.505493%, 21.310425%)" offset="0.773438"/><stop stop-opacity="1" stop-color="rgb(93.638611%, 27.204895%, 21.321106%)" offset="0.78125"/><stop stop-opacity="1" stop-color="rgb(93.609619%, 26.904297%, 21.331787%)" offset="0.789062"/><stop stop-opacity="1" stop-color="rgb(93.580627%, 26.603699%, 21.342468%)" offset="0.796875"/><stop stop-opacity="1" stop-color="rgb(93.55011%, 26.301575%, 21.354675%)" offset="0.804688"/><stop stop-opacity="1" stop-color="rgb(93.521118%, 26.000977%, 21.365356%)" offset="0.8125"/><stop stop-opacity="1" stop-color="rgb(93.492126%, 25.700378%, 21.376038%)" offset="0.820312"/><stop stop-opacity="1" stop-color="rgb(93.463135%, 25.39978%, 21.386719%)" offset="0.828125"/><stop stop-opacity="1" stop-color="rgb(93.434143%, 25.099182%, 21.3974%)" offset="0.835938"/><stop stop-opacity="1" stop-color="rgb(93.403625%, 24.798584%, 21.409607%)" offset="0.84375"/><stop stop-opacity="1" stop-color="rgb(93.374634%, 24.497986%, 21.420288%)" offset="0.851562"/><stop stop-opacity="1" stop-color="rgb(93.345642%, 24.197388%, 21.430969%)" offset="0.859375"/><stop stop-opacity="1" stop-color="rgb(93.31665%, 23.89679%, 21.44165%)" offset="0.867188"/><stop stop-opacity="1" stop-color="rgb(93.287659%, 23.596191%, 21.452332%)" offset="0.875"/><stop stop-opacity="1" stop-color="rgb(93.258667%, 23.295593%, 21.464539%)" offset="0.882812"/><stop stop-opacity="1" stop-color="rgb(93.228149%, 22.993469%, 21.47522%)" offset="0.890625"/><stop stop-opacity="1" stop-color="rgb(93.199158%, 22.692871%, 21.485901%)" offset="0.898437"/><stop stop-opacity="1" stop-color="rgb(93.170166%, 22.392273%, 21.496582%)" offset="0.90625"/><stop stop-opacity="1" stop-color="rgb(93.141174%, 22.091675%, 21.507263%)" offset="0.914062"/><stop stop-opacity="1" stop-color="rgb(93.112183%, 21.791077%, 21.517944%)" offset="0.921875"/><stop stop-opacity="1" stop-color="rgb(93.083191%, 21.490479%, 21.530151%)" offset="0.929687"/><stop stop-opacity="1" stop-color="rgb(93.052673%, 21.18988%, 21.540833%)" offset="0.9375"/><stop stop-opacity="1" stop-color="rgb(93.023682%, 20.889282%, 21.551514%)" offset="0.945313"/><stop stop-opacity="1" stop-color="rgb(92.99469%, 20.588684%, 21.562195%)" offset="0.953125"/><stop stop-opacity="1" stop-color="rgb(92.965698%, 20.288086%, 21.572876%)" offset="0.960938"/><stop stop-opacity="1" stop-color="rgb(92.936707%, 19.987488%, 21.585083%)" offset="0.96875"/><stop stop-opacity="1" stop-color="rgb(92.910767%, 19.717407%, 21.594238%)" offset="1"/></linearGradient></defs><g clip-path="url(#id1)"><g clip-path="url(#id2)"><path fill="url(#id3)" d="M 34.140625 151.207031 L 34.140625 223.953125 L 98.628906 223.953125 L 98.628906 151.207031 Z M 34.140625 151.207031 " fill-rule="nonzero"/></g></g><g fill="#d9d9d9" fill-opacity="1"><g transform="translate(115.250769, 199.874987)"><g><path d="M 3.40625 -29.75 C 5.46875 -30.019531 7.582031 -30.15625 9.75 -30.15625 C 13.78125 -30.15625 16.84375 -29.207031 18.9375 -27.3125 C 21.039062 -25.425781 22.09375 -22.597656 22.09375 -18.828125 C 22.09375 -15.460938 20.945312 -12.800781 18.65625 -10.84375 C 16.5 -9 13.726562 -8.078125 10.34375 -8.078125 C 9.957031 -8.078125 9.535156 -8.097656 9.078125 -8.140625 L 9.078125 0 L 3.40625 0 Z M 10.421875 -24.796875 C 9.972656 -24.796875 9.523438 -24.78125 9.078125 -24.75 L 9.078125 -13.046875 C 9.554688 -12.984375 10.132812 -12.953125 10.8125 -12.953125 C 11.5 -12.953125 12.210938 -13.097656 12.953125 -13.390625 C 13.691406 -13.679688 14.316406 -14.082031 14.828125 -14.59375 C 15.878906 -15.675781 16.40625 -17.101562 16.40625 -18.875 C 16.40625 -22.820312 14.410156 -24.796875 10.421875 -24.796875 Z M 10.421875 -24.796875 "/></g></g></g><g fill="#d9d9d9" fill-opacity="1"><g transform="translate(144.463683, 199.874987)"><g><path d="M 13.390625 -11.5 C 12.953125 -11.476562 12.476562 -11.46875 11.96875 -11.46875 C 11.46875 -11.46875 10.71875 -11.503906 9.71875 -11.578125 L 9.71875 0 L 3.828125 0 L 3.828125 -29.75 C 5.898438 -30.019531 8.453125 -30.15625 11.484375 -30.15625 C 15.609375 -30.15625 18.679688 -29.394531 20.703125 -27.875 C 22.734375 -26.351562 23.75 -24.003906 23.75 -20.828125 C 23.75 -18.367188 22.820312 -16.265625 20.96875 -14.515625 C 20.351562 -13.953125 19.65625 -13.460938 18.875 -13.046875 L 23.40625 -3.46875 C 24.300781 -1.5 24.984375 -0.328125 25.453125 0.046875 L 25.34375 0.15625 C 23.90625 -0.0820312 21.644531 -0.078125 18.5625 0.171875 Z M 11.90625 -24.90625 C 11.144531 -24.90625 10.414062 -24.867188 9.71875 -24.796875 L 9.71875 -16.296875 C 10.445312 -16.191406 11.300781 -16.140625 12.28125 -16.140625 C 13.257812 -16.140625 14.082031 -16.222656 14.75 -16.390625 C 15.414062 -16.554688 15.992188 -16.820312 16.484375 -17.1875 C 17.546875 -17.96875 18.078125 -19.144531 18.078125 -20.71875 C 18.078125 -22.289062 17.523438 -23.394531 16.421875 -24.03125 C 15.398438 -24.613281 13.894531 -24.90625 11.90625 -24.90625 Z M 11.90625 -24.90625 "/></g></g></g><g fill="#d9d9d9" fill-opacity="1"><g transform="translate(177.392859, 199.874987)"><g><path d="M 4.515625 -29.6875 C 6.003906 -29.625 6.898438 -29.59375 7.203125 -29.59375 L 8.8125 -29.59375 C 9.601562 -29.59375 10.234375 -29.65625 10.703125 -29.78125 L 10.6875 0 L 4.515625 0 Z M 4.515625 -29.6875 "/></g></g></g><g fill="#d9d9d9" fill-opacity="1"><g transform="translate(198.995234, 199.874987)"><g><path d="M 9.84375 0.140625 C 9.125 0.046875 7.75 0 5.71875 0 L 3.9375 0 L 3.9375 -29.6875 C 4.882812 -29.625 5.929688 -29.59375 7.078125 -29.59375 C 8.222656 -29.59375 9.03125 -29.65625 9.5 -29.78125 L 16.984375 -17.0625 L 24.171875 -29.78125 C 24.640625 -29.65625 25.539062 -29.59375 26.875 -29.59375 C 28.21875 -29.59375 29.363281 -29.625 30.3125 -29.6875 L 30.3125 0 L 28.53125 0 C 26.5 0 25.125 0.046875 24.40625 0.140625 L 24.40625 -19.8125 L 17.140625 -6.78125 L 9.84375 -18.765625 Z M 9.84375 0.140625 "/></g></g></g><g fill="#d9d9d9" fill-opacity="1"><g transform="translate(239.62396, 199.874987)"><g><path d="M 18.71875 -5.34375 C 19.632812 -5.34375 20.269531 -5.429688 20.625 -5.609375 L 20.71875 -5.59375 L 20.5 0 L 3.828125 0 L 3.828125 -29.75 C 4.222656 -29.71875 4.664062 -29.695312 5.15625 -29.6875 L 6.71875 -29.640625 C 7.757812 -29.609375 8.890625 -29.59375 10.109375 -29.59375 C 13.503906 -29.59375 16.863281 -29.65625 20.1875 -29.78125 C 20.019531 -28.46875 19.9375 -26.722656 19.9375 -24.546875 C 19.9375 -24.304688 19.953125 -24.128906 19.984375 -24.015625 L 19.9375 -23.953125 C 19.164062 -24.171875 18.066406 -24.28125 16.640625 -24.28125 L 9.640625 -24.28125 L 9.640625 -18.609375 L 14.90625 -18.609375 C 16.539062 -18.609375 17.519531 -18.648438 17.84375 -18.734375 L 17.921875 -13.234375 C 17.203125 -13.316406 16.28125 -13.359375 15.15625 -13.359375 L 9.640625 -13.359375 L 9.640625 -5.34375 Z M 18.71875 -5.34375 "/></g></g></g><g fill="#d9d9d9" fill-opacity="1"><g transform="translate(268.836879, 199.874987)"><g><path d="M 13.390625 -11.5 C 12.953125 -11.476562 12.476562 -11.46875 11.96875 -11.46875 C 11.46875 -11.46875 10.71875 -11.503906 9.71875 -11.578125 L 9.71875 0 L 3.828125 0 L 3.828125 -29.75 C 5.898438 -30.019531 8.453125 -30.15625 11.484375 -30.15625 C 15.609375 -30.15625 18.679688 -29.394531 20.703125 -27.875 C 22.734375 -26.351562 23.75 -24.003906 23.75 -20.828125 C 23.75 -18.367188 22.820312 -16.265625 20.96875 -14.515625 C 20.351562 -13.953125 19.65625 -13.460938 18.875 -13.046875 L 23.40625 -3.46875 C 24.300781 -1.5 24.984375 -0.328125 25.453125 0.046875 L 25.34375 0.15625 C 23.90625 -0.0820312 21.644531 -0.078125 18.5625 0.171875 Z M 11.90625 -24.90625 C 11.144531 -24.90625 10.414062 -24.867188 9.71875 -24.796875 L 9.71875 -16.296875 C 10.445312 -16.191406 11.300781 -16.140625 12.28125 -16.140625 C 13.257812 -16.140625 14.082031 -16.222656 14.75 -16.390625 C 15.414062 -16.554688 15.992188 -16.820312 16.484375 -17.1875 C 17.546875 -17.96875 18.078125 -19.144531 18.078125 -20.71875 C 18.078125 -22.289062 17.523438 -23.394531 16.421875 -24.03125 C 15.398438 -24.613281 13.894531 -24.90625 11.90625 -24.90625 Z M 11.90625 -24.90625 "/></g></g></g><g fill="#d9d9d9" fill-opacity="1"><g transform="translate(301.766062, 199.874987)"><g><path d="M 6.25 -3.515625 C 4.90625 -4.804688 3.84375 -6.351562 3.0625 -8.15625 C 2.28125 -9.96875 1.890625 -11.953125 1.890625 -14.109375 C 1.890625 -16.273438 2.253906 -18.320312 2.984375 -20.25 C 3.710938 -22.175781 4.75 -23.875 6.09375 -25.34375 C 7.445312 -26.8125 9.078125 -27.976562 10.984375 -28.84375 C 12.898438 -29.71875 15.046875 -30.15625 17.421875 -30.15625 C 21.515625 -30.15625 24.96875 -28.863281 27.78125 -26.28125 C 30.769531 -23.519531 32.265625 -19.796875 32.265625 -15.109375 C 32.265625 -10.566406 30.722656 -6.789062 27.640625 -3.78125 C 25.742188 -1.925781 23.484375 -0.648438 20.859375 0.046875 C 19.566406 0.390625 18.054688 0.5625 16.328125 0.5625 C 14.597656 0.5625 12.820312 0.207031 11 -0.5 C 9.1875 -1.21875 7.601562 -2.222656 6.25 -3.515625 Z M 8.078125 -14.421875 C 8.078125 -13.035156 8.304688 -11.765625 8.765625 -10.609375 C 9.222656 -9.453125 9.863281 -8.460938 10.6875 -7.640625 C 12.414062 -5.878906 14.644531 -5 17.375 -5 C 19.976562 -5 22.066406 -5.835938 23.640625 -7.515625 C 25.234375 -9.253906 26.03125 -11.625 26.03125 -14.625 C 26.03125 -17.4375 25.269531 -19.785156 23.75 -21.671875 C 22.101562 -23.691406 19.847656 -24.703125 16.984375 -24.703125 C 14.203125 -24.703125 12 -23.675781 10.375 -21.625 C 8.84375 -19.71875 8.078125 -17.316406 8.078125 -14.421875 Z M 8.078125 -14.421875 "/></g></g></g></svg>